PathFileType	4	(X/Y/Z)	1H_nor_med_right.trc
DataRate	CameraRate	NumFrames	NumMarkers	Units	OrigDataRate	OrigDataStartFrame	OrigNumFrames
250.00	250.00	20	18	mm	250.00	1377	11009
Frame#	Time	c7	r_should	l_should	clavicle	r_upa	r_elb_l	r_elb_m	r_low	r_wri_l	r_wri_m	r_met	l_upa	l_elb_l	l_elb_m	l_low	l_wri_l	l_wri_m	l_met
	X1	Y1	Z1	X2	Y2	Z2	X3	Y3	Z3	X4	Y4	Z4	X5	Y5	Z5	X6	Y6	Z6	X7	Y7	Z7	X8	Y8	Z8	X9	Y9	Z9	X10	Y10	Z10	X11	Y11	Z11	X12	Y12	Z12	X13	Y13	Z13	X14	Y14	Z14	X15	Y15	Z15	X16	Y16	Z16	X17	Y17	Z17	X18	Y18	Z18
1377	5.50400	1235.35437	1424.39563	137.52737	1294.20593	1371.63733	284.01688	1237.55603	1362.16028	-40.51992	1339.13330	1282.45154	113.26895	1327.08618	1173.02002	363.67511	1336.15100	1088.97559	390.98389	1249.82263	1055.23230	373.33643	1364.81213	964.41876	364.28302	1391.65979	851.98535	331.49591	1340.60864	832.65210	384.14951	1432.70654	794.97107	359.86417	1216.74866	1150.60168	-101.64709	1216.60999	1043.20715	-121.19179	1172.49658	1032.87842	-29.57637	1219.74866	920.20319	-115.84601	1236.46155	803.25195	-93.11730	1158.62939	799.57642	-93.20827	1219.59448	722.74170	-130.89061
1378	5.50800	1235.42297	1424.39563	137.51846	1295.15796	1370.54041	284.15015	1237.58850	1362.21204	-40.55355	1339.16296	1282.44714	113.21885	1327.05139	1172.76831	363.50458	1336.07581	1088.62708	390.79483	1249.64978	1055.01050	373.05261	1364.46387	963.84369	364.52036	1391.09973	851.13177	332.25800	1340.05933	832.17145	385.12051	1431.64990	794.13452	361.34732	1216.73853	1150.66455	-101.72073	1216.59229	1043.27112	-121.28551	1172.47253	1032.94910	-29.67614	1219.93359	920.13464	-116.40152	1236.41235	803.36823	-93.28429	1158.61633	799.63477	-93.31786	1219.56909	722.81287	-131.00278
1379	5.51200	1235.48682	1424.38965	137.50597	1295.48230	1370.18396	284.18701	1237.62439	1362.26025	-40.58376	1339.19312	1282.43701	113.17809	1327.00781	1172.52393	363.33331	1335.99219	1088.26538	390.59424	1249.47095	1054.78027	372.76501	1364.10547	963.24670	364.76404	1390.53564	850.30072	333.03256	1339.35291	831.69177	385.88266	1430.75415	793.28113	362.53424	1216.72839	1150.71777	-101.79253	1216.57056	1043.33484	-121.37283	1172.45593	1033.01025	-29.77571	1219.96155	920.15125	-116.62132	1236.39075	803.45367	-93.42095	1158.59937	799.68994	-93.42915	1219.54553	722.88232	-131.11604
1380	5.51600	1235.54700	1424.38794	137.48967	1295.63867	1370.01892	284.20447	1237.66370	1362.30298	-40.61010	1339.21814	1282.42017	113.14009	1326.95703	1172.27759	363.16837	1335.89490	1087.90259	390.39584	1249.28784	1054.54211	372.48590	1363.75647	962.66663	364.99725	1389.95349	849.45972	333.81454	1338.60620	831.21747	386.62195	1430.00891	792.23865	363.65594	1216.71973	1150.76929	-101.86156	1216.54529	1043.40234	-121.45637	1172.44592	1033.06274	-29.87460	1219.85803	920.26422	-116.54242	1236.37292	803.52008	-93.53658	1158.58423	799.75006	-93.54514	1219.52905	722.94989	-131.22775
1381	5.52000	1235.60767	1424.38953	137.47687	1295.75330	1369.90552	284.22098	1237.69897	1362.34766	-40.64027	1339.24194	1282.40662	113.10513	1326.90796	1172.03040	363.00012	1335.78870	1087.56079	390.20200	1249.10840	1054.29700	372.20203	1363.40955	962.10168	365.23883	1389.37720	848.63086	334.57761	1337.84045	830.74207	387.34641	1429.40747	790.97162	364.75900	1216.71130	1150.81934	-101.92354	1216.51465	1043.46350	-121.53418	1172.42322	1033.12085	-29.96300	1219.71423	920.39178	-116.38226	1236.35364	803.57446	-93.64096	1158.57690	799.80475	-93.65238	1219.51489	723.01654	-131.33780
1382	5.52400	1235.66846	1424.39001	137.46103	1295.85730	1369.81006	284.24155	1237.73816	1362.38599	-40.67044	1339.26611	1282.39685	113.06266	1326.85974	1171.78284	362.82574	1335.68457	1087.23010	390.00522	1248.93579	1054.04419	371.88281	1363.05310	961.52344	365.48822	1388.78882	847.81750	335.33441	1337.06873	830.27142	388.03879	1428.86108	789.94464	365.96762	1216.70081	1150.86987	-101.98870	1216.49561	1043.51709	-121.61815	1172.42029	1033.16895	-30.05266	1219.75659	920.40289	-116.61035	1236.33521	803.63037	-93.74495	1158.56433	799.85541	-93.74758	1219.49866	723.08374	-131.44383
1383	5.52800	1235.73047	1424.38904	137.44255	1295.95398	1369.72180	284.25644	1237.77917	1362.42419	-40.70180	1339.28992	1282.38745	113.01914	1326.79907	1171.52930	362.64990	1335.58228	1086.87952	389.77271	1248.74622	1053.78931	371.53372	1362.67847	960.95135	365.73029	1388.18713	847.00763	336.06265	1336.28137	829.80200	388.72495	1428.33191	788.98547	367.19659	1216.69519	1150.91919	-102.05474	1216.47925	1043.57214	-121.70101	1172.41162	1033.22144	-30.13905	1219.64978	920.51996	-116.54382	1236.32520	803.69257	-93.84454	1158.56177	799.90143	-93.84169	1219.48523	723.15228	-131.54575
1384	5.53200	1235.78931	1424.38989	137.42104	1296.04395	1369.64392	284.27280	1237.82178	1362.46008	-40.73844	1339.31665	1282.37830	112.97929	1326.73096	1171.28247	362.47562	1335.48401	1086.52441	389.52921	1248.53247	1053.54041	371.18680	1362.30457	960.40198	365.94952	1387.58618	846.19904	336.78784	1335.53076	829.34540	389.38873	1427.10376	788.30334	368.03122	1216.68994	1150.96924	-102.12238	1216.45410	1043.63257	-121.78446	1172.39929	1033.27466	-30.23095	1219.79907	920.46716	-116.99709	1236.31177	803.75824	-93.93858	1158.55933	799.94116	-93.94189	1219.48169	723.22070	-131.65323
1385	5.53600	1235.84314	1424.39807	137.39835	1296.12842	1369.57068	284.29276	1237.86780	1362.49707	-40.77101	1339.33667	1282.37097	112.94438	1326.66614	1171.03198	362.29971	1335.38977	1086.17444	389.28775	1248.31628	1053.30823	370.84250	1361.92871	959.85138	366.14774	1387.00366	845.38147	337.51996	1334.76233	828.90143	390.08469	1426.17395	787.53705	369.03247	1216.68994	1151.01978	-102.18902	1216.42688	1043.69763	-121.86761	1172.38855	1033.32471	-30.31923	1219.82068	920.49609	-117.18144	1236.29565	803.80286	-94.03004	1158.56079	799.98041	-94.03156	1219.48230	723.28540	-131.76021
1386	5.54000	1235.89673	1424.40686	137.36897	1296.20447	1369.49463	284.31204	1237.90698	1362.53333	-40.80079	1339.35669	1282.36023	112.90769	1326.59717	1170.77747	362.12216	1335.28296	1085.82434	389.05011	1248.10510	1053.07935	370.48517	1361.55005	959.29541	366.34863	1386.42859	844.56848	338.25723	1334.01135	828.46619	390.76901	1425.55396	786.67529	370.18921	1216.69067	1151.06750	-102.25706	1216.39966	1043.75439	-121.94972	1172.38184	1033.36328	-30.40452	1219.79968	920.54120	-117.28658	1236.57556	803.52716	-93.75637	1158.56055	800.02588	-94.11324	1219.48889	723.34216	-131.86533
1387	5.54400	1235.95410	1424.41296	137.34236	1296.28003	1369.41455	284.32632	1237.95056	1362.55920	-40.83458	1339.37610	1282.34802	112.86795	1326.51965	1170.52185	361.93411	1335.17078	1085.46960	388.80658	1247.90393	1052.85547	370.13098	1361.16125	958.72589	366.54913	1385.86096	843.76312	338.98730	1333.24841	828.03870	391.43649	1425.23572	785.69965	371.51981	1216.68811	1151.10754	-102.32479	1216.37805	1043.80029	-122.02713	1172.37854	1033.40369	-30.49517	1219.67957	920.63654	-117.18302	1237.22644	802.85797	-93.02647	1158.56030	800.06860	-94.20424	1219.49414	723.39124	-131.97667
1388	5.54800	1236.00720	1424.41663	137.31082	1296.35571	1369.33203	284.33853	1237.99866	1362.58008	-40.87395	1339.39624	1282.33582	112.83174	1326.43542	1170.25781	361.73380	1335.05933	1085.13354	388.57047	1247.71899	1052.61755	369.76898	1360.77991	958.16284	366.73318	1385.28235	842.97614	339.69852	1332.48694	827.59454	392.07928	1424.66394	785.03979	372.76633	1216.69043	1151.14209	-102.39048	1216.36133	1043.83447	-122.10812	1172.37183	1033.44946	-30.58935	1219.53809	920.75024	-117.03118	1237.38293	802.72241	-92.91331	1158.56079	800.11871	-94.32109	1219.50366	723.43713	-132.08859
1389	5.55200	1236.05701	1424.41809	137.27051	1296.41992	1369.24841	284.35315	1238.04858	1362.60132	-40.91016	1339.42505	1282.32495	112.80244	1326.34558	1169.99231	361.52609	1334.94141	1084.78394	388.30722	1247.52710	1052.37146	369.37726	1360.39258	957.59174	366.89746	1384.67810	842.18005	340.39523	1331.72131	827.16010	392.69409	1423.93372	784.72693	373.99170	1216.69861	1151.17273	-102.46350	1216.34375	1043.86597	-122.18378	1172.37878	1033.48157	-30.68151	1219.59509	920.74286	-117.25034	1237.11780	803.03168	-93.32035	1158.57031	800.17212	-94.45071	1219.51221	723.48303	-132.20059
1390	5.55600	1236.10889	1424.42603	137.23712	1296.47864	1369.16028	284.37610	1238.10083	1362.61584	-40.94089	1339.45374	1282.31189	112.77452	1326.25439	1169.73071	361.31882	1334.81921	1084.40149	388.00223	1247.32227	1052.13806	368.96405	1360.00452	957.01886	367.05038	1384.06702	841.39038	341.06293	1330.93604	826.72064	393.32117	1422.53552	784.07214	374.59186	1216.70569	1151.20410	-102.53378	1216.32959	1043.90283	-122.26721	1172.37183	1033.51587	-30.77828	1219.41772	920.89728	-116.97475	1236.45581	803.76288	-94.22873	1158.57739	800.20966	-94.57209	1219.51794	723.52448	-132.31412
1391	5.56000	1236.16101	1424.42822	137.20978	1296.53662	1369.06311	284.40085	1238.15088	1362.62854	-40.97423	1339.48462	1282.30164	112.74603	1326.15686	1169.46887	361.10797	1334.68945	1084.01184	387.67728	1247.12097	1051.87732	368.52258	1359.60840	956.44287	367.21658	1383.45178	840.60229	341.74197	1330.19751	826.27997	393.93198	1421.38062	783.12036	375.39893	1216.71265	1151.22961	-102.59737	1216.31165	1043.92834	-122.34647	1172.36292	1033.54736	-30.86554	1219.07642	921.38599	-117.59741	1236.28479	803.97565	-94.51807	1158.58459	800.24725	-94.68294	1219.52490	723.56415	-132.42638
1392	5.56400	1236.21350	1424.42371	137.17859	1296.58960	1368.95911	284.42352	1238.19788	1362.64368	-41.00457	1339.51331	1282.29553	112.72138	1326.05151	1169.20361	360.88589	1334.55798	1083.64526	387.36465	1246.90796	1051.59888	368.07535	1359.22400	955.87689	367.37735	1382.83630	839.83551	342.42758	1329.42273	825.84912	394.54562	1420.68579	782.60114	376.65198	1216.71802	1151.25415	-102.66288	1216.29187	1043.95557	-122.43378	1172.36304	1033.56885	-30.94499	1218.69128	921.95966	-118.44820	1236.23938	804.05139	-94.66295	1158.59155	800.27704	-94.78075	1219.53015	723.60059	-132.53427
1393	5.56800	1236.26465	1424.42102	137.15572	1296.64819	1368.85278	284.44495	1238.24536	1362.66016	-41.03594	1339.54468	1282.29126	112.68727	1325.94556	1168.93420	360.66226	1334.42554	1083.29333	387.06369	1246.70679	1051.32458	367.64203	1358.82935	955.32727	367.53488	1382.22644	839.07526	343.10031	1328.65100	825.40265	395.13840	1419.95593	781.99890	377.63458	1216.72864	1151.27783	-102.73025	1216.28699	1043.98584	-122.51712	1172.36658	1033.59058	-31.03011	1219.17407	921.29999	-117.49890	1236.23193	804.09833	-94.77998	1158.59985	800.31079	-94.88572	1219.54089	723.63403	-132.64644
1394	5.57200	1236.31335	1424.40881	137.13834	1296.70996	1368.74146	284.46228	1238.29102	1362.68115	-41.07172	1339.57788	1282.28210	112.65720	1325.84668	1168.66589	360.44220	1334.28491	1082.93347	386.75720	1246.53662	1051.04980	367.21426	1358.41968	954.76392	367.67026	1381.62793	838.29529	343.76038	1327.91089	824.96271	395.71588	1419.17822	781.32074	378.59662	1216.74329	1151.30603	-102.80653	1216.29065	1044.01709	-122.60163	1172.38757	1033.61108	-31.11355	1219.30005	921.15723	-117.32992	1236.23535	804.14471	-94.88869	1158.61316	800.33435	-94.99572	1219.56140	723.67084	-132.76190
1395	5.57600	1236.36096	1424.39783	137.12500	1296.77185	1368.62231	284.48752	1238.33704	1362.69849	-41.10575	1339.61060	1282.27563	112.62574	1325.75330	1168.39099	360.22296	1334.14111	1082.57007	386.46326	1246.36401	1050.76953	366.77988	1358.01624	954.19928	367.79071	1381.02344	837.51898	344.40469	1327.14465	824.54010	396.30096	1418.32434	780.56311	379.58096	1216.76050	1151.33423	-102.87833	1216.30273	1044.04907	-122.68140	1172.40417	1033.63086	-31.18937	1219.34155	921.14478	-117.35979	1236.24768	804.18073	-94.98265	1158.62231	800.35779	-95.09432	1219.58374	723.70874	-132.87401
1396	5.58000	1236.40662	1424.38965	137.11647	1296.84058	1368.50208	284.51846	1238.38086	1362.71692	-41.13298	1339.64050	1282.26575	112.59985	1325.65515	1168.09497	360.00217	1334.00220	1082.19250	386.17294	1246.16455	1050.50305	366.35770	1357.61829	953.64722	367.90662	1380.42224	836.74457	345.04730	1326.39136	824.12006	396.86520	1417.71265	779.77576	380.66791	1216.78418	1151.36511	-102.94329	1216.31531	1044.09167	-122.76956	1172.42957	1033.64502	-31.26536	1219.36292	921.17059	-117.44157	1236.26782	804.21436	-95.06439	1158.63562	800.38312	-95.18439	1219.61389	723.74799	-132.97856
